<svg xmlns="http://www.w3.org/2000/svg" xmlns:xlink="http://www.w3.org/1999/xlink" version="1.1" x="0px" y="0px" viewBox="0 0 100 100" enable-background="new 0 0 100 100" xml:space="preserve"><path fill="#000000" d="M20,80.937h60c3.618,0,6.562-2.944,6.562-6.562v-52.5c0-3.618-2.944-6.562-6.562-6.562H20  c-3.618,0-6.562,2.944-6.562,6.562v52.5C13.438,77.993,16.382,80.937,20,80.937z M20,17.188h60c2.585,0,4.688,2.102,4.688,4.688  v4.688H15.312v-4.688C15.312,19.29,17.414,17.188,20,17.188z M15.312,28.438h69.375v45.937c0,2.585-2.103,4.688-4.688,4.688H20  c-2.586,0-4.688-2.102-4.688-4.688V28.438z"></path><circle fill="#000000" cx="21.875" cy="21.875" r="1.875"></circle><circle fill="#000000" cx="29.375" cy="21.875" r="1.875"></circle><circle fill="#000000" cx="36.875" cy="21.875" r="1.875"></circle><path fill="#000000" d="M57.5,64.062h-15c-0.519,0-0.938,0.419-0.938,0.938c0,0.519,0.419,0.938,0.938,0.938h8.438v2.812  c0,2.067,1.681,3.75,3.75,3.75c2.068,0,3.75-1.683,3.75-3.75V65C58.438,64.481,58.018,64.062,57.5,64.062z M54.688,70.625  c-1.033,0-1.875-0.84-1.875-1.875v-2.812h3.75v2.812C56.562,69.784,55.72,70.625,54.688,70.625z"></path><path fill="#000000" d="M38.087,60.038c0.184,0.183,0.423,0.274,0.663,0.274s0.479-0.091,0.663-0.274l1.212-1.212l1.212,1.212  c0.184,0.183,0.423,0.274,0.663,0.274s0.479-0.091,0.663-0.274c0.366-0.366,0.366-0.959,0-1.326L41.95,57.5l1.213-1.212  c0.366-0.366,0.366-0.959,0-1.326s-0.96-0.366-1.326,0l-1.212,1.212l-1.212-1.212c-0.366-0.366-0.96-0.366-1.326,0  s-0.366,0.959,0,1.326l1.212,1.212l-1.212,1.212C37.721,59.078,37.721,59.671,38.087,60.038z"></path><path fill="#000000" d="M56.837,60.038c0.183,0.183,0.423,0.274,0.663,0.274c0.239,0,0.479-0.091,0.662-0.274l1.213-1.212  l1.212,1.212c0.183,0.183,0.423,0.274,0.663,0.274c0.239,0,0.479-0.091,0.662-0.274c0.367-0.366,0.367-0.959,0-1.326L60.7,57.5  l1.212-1.212c0.367-0.366,0.367-0.959,0-1.326c-0.365-0.366-0.959-0.366-1.325,0l-1.212,1.212l-1.213-1.212  c-0.365-0.366-0.959-0.366-1.325,0s-0.366,0.959,0,1.326l1.212,1.212l-1.212,1.212C56.471,59.078,56.471,59.671,56.837,60.038z"></path></svg>