<svg xmlns="http://www.w3.org/2000/svg" xmlns:xlink="http://www.w3.org/1999/xlink" version="1.1" x="0px" y="0px" viewBox="0 0 100 100" style="enable-background:new 0 0 100 100;" xml:space="preserve"><g><path d="M24.4423828,91.8808594c-0.0424805,0-0.0854492-0.0019531-0.128418-0.0058594l-0.1245117-0.0107422   c-0.8603516-0.0693359-1.5068359-0.8300781-1.4370117-1.6943359l2.8095703-34.5878906   c-0.5600586-0.28125-1.0297852-0.6650391-1.4003906-1.1455078c-1.3955078-1.8154297-1.0556641-4.4267578,0.7568359-5.8227539   l10.2763672-6.9213867c0.1899414-0.5356445,0.4355469-1.2714844,0.7211914-2.1264648   c0.9360352-2.8022461,2.2182617-6.6401367,3.4257812-9.2216797c1.8051758-3.8583984,5.6459961-4.6694336,10.5087891-5.6958008   l0.3696289-0.078125c5.3374023-1.1264648,8.8520508,2.4023438,9.800293,3.5112305   c0.0683594,0.0786133,0.1220703,0.1459961,0.1748047,0.2143555l16.2060547,20.0893555   c1.3916016,1.8378906,1.0302734,4.4467773-0.7939453,5.8276367c-1.8242188,1.3818359-4.4345703,1.0195312-5.8154297-0.8037109   l-12.0097656-16.199707l4.6308594,13.3974609l3.0791016,19.9282227l9.4101562,14.5371094   c1.2177734,1.9160156,0.5888672,4.5859375-1.3720703,5.8339844c-1.9296875,1.2275391-4.5029297,0.6552734-5.7314453-1.2744141   l-9.9960938-15.2441406c-0.2548828-0.4013672-0.4355469-0.8320312-0.5419922-1.2871094l-2.8125-13.1923828L43.3774414,71.1816406   l-3.1967773,16.9892578c-0.3686523,1.9609375-2.0830078,3.3837891-4.0751953,3.3837891   c-0.2583008,0-0.5180664-0.0244141-0.7714844-0.0722656c-1.0893555-0.2041016-2.0341797-0.8212891-2.6601562-1.7373047   c-0.625-0.9150391-0.8564453-2.0195312-0.6513672-3.109375l2.8266602-18.3134766   c0.1552734-0.828125,0.5419922-1.5693359,1.1210938-2.1582031l12.5214844-13.7958984l-3.4086914-14.1074219   c-1.0966797,2.9863281-2.0751953,6.0742188-2.4448242,7.2636719l-0.0322266,0.1015625   c-0.2675781,0.7626953-0.746582,1.4248047-1.3847656,1.9165039l-11.2612305,7.6674805   c-0.3261719,0.2519531-0.7114258,0.4560547-1.1381836,0.6015625l-2.8120117,34.6220703   C25.9428711,91.2558594,25.2529297,91.8808594,24.4423828,91.8808594z M52.2714844,25.3520508   c-0.5849609,0-1.1992188,0.0605469-1.8442383,0.1967773l-0.3701172,0.078125   c-4.7695312,1.0068359-8.215332,1.734375-9.809082,5.1411133c-1.1835938,2.5292969-2.5073242,6.4921875-3.3837891,9.1147461   c-0.3168945,0.9492188-0.5854492,1.7524414-0.7836914,2.3017578l-0.0551758,0.1538086l-10.5224609,7.0859375   c-1.3505859,1.0415039-1.6083984,3.0239258-0.5488281,4.4018555c0.3325195,0.4316406,0.7773438,0.7617188,1.3217773,0.9814453   l0.3413086,0.1376953L23.7495117,90.25c-0.0258789,0.3154297,0.2099609,0.5927734,0.5249023,0.6181641l0.1245117,0.0107422   c0.309082,0.0263672,0.5888672-0.2099609,0.6137695-0.5253906l2.8691406-35.3193359l0.3457031-0.0878906   c0.4331055-0.1103516,0.8188477-0.2939453,1.1464844-0.5458984l11.2607422-7.6669922   c0.4609375-0.3564453,0.8242188-0.8588867,1.0273438-1.4370117c0.3930664-1.265625,1.3779297-4.3725586,2.4819336-7.3823242   c0.1518555-0.4155273,0.5527344-0.6821289,0.9951172-0.6523438c0.4438477,0.0253906,0.8120117,0.3325195,0.9160156,0.7641602   l3.5332031,14.621582l-12.8916016,14.203125c-0.4526367,0.4619141-0.7460938,1.0234375-0.8623047,1.640625l-2.8266602,18.3134766   c-0.1586914,0.84375,0.0170898,1.6816406,0.4921875,2.3769531c0.4746094,0.6943359,1.1918945,1.1630859,2.019043,1.3183594   c1.7407227,0.3271484,3.3632812-0.8349609,3.6791992-2.5146484l3.2524414-17.2880859l11.284668-11.4902344   c0.2568359-0.2617188,0.6376953-0.3603516,0.9912109-0.2597656c0.3554688,0.1025391,0.6230469,0.3916016,0.7001953,0.7519531   l2.8095703,13.1826172c0.0791016,0.3359375,0.2158203,0.6630859,0.40625,0.9638672l9.9960938,15.2431641   c0.9355469,1.4697266,2.8886719,1.9033203,4.3554688,0.9736328c1.5029297-0.9570312,1.9912109-2.9951172,1.0664062-4.4501953   l-9.5400391-14.8193359l-3.0742188-19.9462891l-4.609375-13.3100586c-0.1650391-0.4780273,0.0322266-0.9760742,0.4794922-1.2119141   c0.4453125-0.2338867,0.9677734-0.1162109,1.2685547,0.2890625l12.0068359,16.1958008   c1.046875,1.3818359,3.0273438,1.6542969,4.4121094,0.6064453c1.3847656-1.0488281,1.6582031-3.0292969,0.6103516-4.4150391   L59.4091797,28.9135742c-0.0478516-0.0620117-0.0878906-0.112793-0.1308594-0.1616211   C58.5195312,27.8657227,56.0380859,25.3520508,52.2714844,25.3520508z"></path><path d="M45.0874023,24.9550781c-2.2260742,0-4.3266602-0.859375-5.934082-2.4667969   c-2.0029297-2.0024414-2.8447266-4.7709961-2.3095703-7.5947266c0.6308594-3.3276367,3.2905273-5.9873047,6.6181641-6.6176758   c2.8261719-0.5356445,5.5922852,0.3061523,7.5947266,2.309082c2.0029297,2.0029297,2.8447266,4.7705078,2.3095703,7.5942383   c-0.6308594,3.3276367-3.2905273,5.9873047-6.6176758,6.6181641l0,0   C46.190918,24.9033203,45.6352539,24.9550781,45.0874023,24.9550781z M45.1162109,9.1191406   c-0.4838867,0-0.9746094,0.0458984-1.4677734,0.1391602c-2.9272461,0.5546875-5.2670898,2.894043-5.8222656,5.8217773   c-0.4726562,2.4936523,0.269043,4.9360352,2.0341797,6.7011719s4.2075195,2.5043945,6.7016602,2.0336914   c2.9272461-0.5551758,5.2670898-2.8950195,5.8217773-5.8222656c0.4726562-2.4931641-0.2695312-4.9355469-2.0341797-6.7006836   C48.9331055,9.8759766,47.0810547,9.1191406,45.1162109,9.1191406z"></path></g></svg>