<svg xmlns="http://www.w3.org/2000/svg" xmlns:xlink="http://www.w3.org/1999/xlink" version="1.1" x="0px" y="0px" viewBox="0 0 100 100" enable-background="new 0 0 100 100" xml:space="preserve"><g><g><circle cx="47" cy="21.301" r="6.99"></circle></g><g><path d="M84.343,82.008L76.09,43.706c-0.431-3.111-3.38-8.71-11.743-8.71c-6.687,0-9.879,3.572-11.122,6.598    c-2.718-0.935-5.966-2.168-5.966-2.168s-3.964-8.002-5.856-11.523c-1.181-2.204-5.655-4.354-10.01,0L17.618,43.428    c0,0-1.517,1.946-1.825,2.67c-0.198,0.463-0.204,5.791-0.204,5.791v29.569h0.009c0,2.246,1.815,4.064,4.062,4.064    c2.245,0,4.062-1.818,4.062-4.064V58.3c2.88,3.389,5.228,6.355,5.228,6.355v16.803h0.006c0,2.246,1.818,4.064,4.064,4.064    c2.242,0,4.062-1.818,4.062-4.064v-21.17l-8.354-9.494l9.09-10.048l4.156,5.479l9.357,3.414l-6.972,32.368    c-0.356,1.64,0.688,3.257,2.329,3.61c1.628,0.358,3.254-0.688,3.61-2.329l1.558-7.239h24.988l1.561,7.239    c0.306,1.424,1.566,2.397,2.967,2.397c0.211,0,0.428-0.021,0.641-0.068C83.651,85.265,84.693,83.647,84.343,82.008z     M58.621,44.555c0.019-0.139,0.451-3.482,5.726-3.482c4.938,0,5.644,2.952,5.727,3.482c0.012,0.104,3.104,14.472,3.104,14.472    H55.524C55.524,59.026,58.612,44.659,58.621,44.555z M53.162,69.975l1.051-4.872h20.271l1.048,4.872H53.162z"></path></g></g></svg>