<svg xmlns="http://www.w3.org/2000/svg" xmlns:xlink="http://www.w3.org/1999/xlink" version="1.1" x="0px" y="0px" viewBox="0 0 64 64" style="enable-background:new 0 0 64 64;" xml:space="preserve"><g><path d="M61.656,30.115l-2.51-4.602c-1.308-2.398-2.96-4.607-4.871-6.561l0.007-0.009l-0.064-0.051   c-1.306-1.328-2.73-2.541-4.26-3.6C44.957,11.83,39.098,10,33.014,10c-6.125,0-12.058,1.285-17.634,3.819l-0.853,0.388   C12.992,14.906,12,16.447,12,18.133c0,0.266,0.033,0.53,0.082,0.79l-0.336-0.168C10.758,18.261,9.652,18,8.548,18   c-1.91,0-3.706,0.744-5.057,2.095l-1.351,1.351C1.405,22.181,1,23.158,1,24.198c0,0.705,0.191,1.397,0.555,2.004l0.409,0.682   C3.487,29.423,6.273,31,9.234,31c1.31,0,2.621-0.31,3.792-0.896l1.811-0.904c0.261-0.131,0.554-0.2,0.846-0.2h4.251   c0.522,0.426,1.057,0.835,1.604,1.226l-1.186,1.483C18.835,33.604,18,35.986,18,38.415c0,1.865,0.489,3.707,1.415,5.325   c1.848,3.235,4.428,6.09,7.461,8.257l2.147,1.534C29.453,53.838,29.958,54,30.485,54C31.872,54,33,52.872,33,51.485v-3.58   c0-2.752-0.97-5.432-2.732-7.546C28.806,38.604,28,36.38,28,34.095v-0.329C31.601,35.211,35.49,36,39.49,36   c1.502,0,3.006-0.035,4.51-0.094v2.006c0,2.255,1.096,4.385,2.932,5.696l4.092,2.923C51.453,46.838,51.958,47,52.485,47   C53.872,47,55,45.872,55,44.485V40c0-1.797-0.713-3.522-1.934-4.812c1.834-0.216,3.663-0.463,5.479-0.766l1.104-0.184   C61.011,34.011,62,32.844,62,31.463C62,30.993,61.881,30.527,61.656,30.115z M58.394,28.312c-2.957,0.605-5.949,1.047-8.957,1.326   L46,22.764V21.79c0-0.888,0.345-1.722,0.973-2.349c1.198-1.198,3.1-1.306,4.422-0.244l1.478,1.182   c1.771,1.816,3.303,3.866,4.517,6.092L58.394,28.312z M30.625,14.222c0.182,0.908-0.101,1.841-0.756,2.495l-0.444,0.445   l-8.249,3.666c-1.538-1.705-2.863-3.6-3.935-5.625c3.752-1.584,7.662-2.591,11.684-2.994C29.79,12.552,30.44,13.3,30.625,14.222z    M30.213,19h0.666c1.084,0,2.146,0.44,2.914,1.207C34.571,20.985,35,22.02,35,23.121v0.643l-2.339,4.677   c-2.8-0.975-5.449-2.386-7.812-4.204c-0.762-0.586-1.49-1.218-2.188-1.881L30.213,19z M36.776,24.685l0.909-0.606   c1.882-1.256,4.407-1.414,6.436-0.4l0.133,0.067l3.032,6.064C45.456,29.931,43.623,30,41.791,30c-2.433,0-4.85-0.34-7.188-0.969   L36.776,24.685z M33.015,12c5.455,0,10.709,1.593,15.253,4.586c-0.995,0.201-1.943,0.675-2.71,1.442   c-0.929,0.929-1.472,2.14-1.549,3.439c-2.333-0.807-4.975-0.536-7.08,0.724c-0.194-1.282-0.789-2.464-1.723-3.397   c-0.873-0.873-1.963-1.449-3.148-1.68c0.559-0.983,0.754-2.145,0.526-3.284c-0.131-0.658-0.401-1.266-0.774-1.797   C32.212,12.02,32.612,12,33.015,12z M15.683,27c-0.602,0-1.204,0.143-1.741,0.411l-1.811,0.904C11.237,28.764,10.235,29,9.234,29   c-2.263,0-4.392-1.205-5.556-3.146L3.27,25.174C3.093,24.879,3,24.541,3,24.198c0-0.506,0.197-0.981,0.555-1.339l1.351-1.351   C5.879,20.536,7.172,20,8.548,20c0.795,0,1.592,0.188,2.304,0.544l2.701,1.351l0.001-0.003c1.207,1.864,2.603,3.571,4.15,5.108   H15.683z M28.732,41.641C30.194,43.396,31,45.62,31,47.905v3.58c0,0.391-0.495,0.645-0.814,0.419l-2.148-1.534   c-2.8-2-5.182-4.636-6.887-7.622C20.398,41.431,20,39.933,20,38.415c0-1.976,0.68-3.914,1.914-5.456l1.296-1.62   c0.904,0.561,1.833,1.079,2.79,1.544v1.211C26,36.847,26.97,39.526,28.732,41.641z M51,36c1.252,0.939,2,2.435,2,4v4.485   c0,0.391-0.495,0.646-0.814,0.419l-4.092-2.923C46.783,41.044,46,39.522,46,37.912v-2.119c1.435-0.081,2.869-0.185,4.3-0.319L51,36   z M59.32,32.267l-1.104,0.184h0C52.049,33.479,45.749,34,39.49,34c-10.428,0-20.081-5.646-25.193-14.734   C14.103,18.921,14,18.529,14,18.133c0-0.904,0.532-1.73,1.355-2.105l0.047-0.021c1.992,3.808,4.822,7.197,8.228,9.817   C28.808,29.807,35.257,32,41.791,32c5.914,0,11.836-0.629,17.604-1.853l0.505,0.926c0.065,0.119,0.1,0.254,0.1,0.39   C60,31.862,59.713,32.2,59.32,32.267z"></path><rect x="8" y="22" width="2" height="2"></rect></g></svg>