<svg xmlns="http://www.w3.org/2000/svg" xmlns:xlink="http://www.w3.org/1999/xlink" version="1.1" x="0px" y="0px" viewBox="0 0 90 64.9" enable-background="new 0 0 90 64.9" xml:space="preserve"><g><path d="M9.7,31.6l9.7-5.4l-9.7-5.4c-0.5-0.3-0.8-0.5-1-0.7c-0.2-0.2-0.2-0.5-0.2-0.8c0-0.4,0.2-0.8,0.5-1.1   c0.3-0.3,0.7-0.5,1.1-0.5c0.3,0,0.6,0.1,1.2,0.4l14.4,8l-14.4,8c-0.5,0.3-0.9,0.4-1.2,0.4c-0.4,0-0.8-0.2-1.1-0.5   c-0.3-0.3-0.5-0.7-0.5-1.1c0-0.3,0.1-0.6,0.2-0.8C8.9,32.1,9.2,31.9,9.7,31.6z M24,42.2c0,0.4,0.2,0.8,0.5,1.1   c0.3,0.3,0.8,0.4,1.5,0.4h16.4c0.7,0,1.2-0.1,1.5-0.4c0.3-0.3,0.5-0.6,0.5-1.1c0-0.4-0.2-0.8-0.5-1.1c-0.3-0.3-0.8-0.4-1.5-0.4H26   c-0.7,0-1.2,0.1-1.5,0.4C24.2,41.4,24,41.8,24,42.2z M90,5.7v53.7c0,3.1-2.5,5.5-5.5,5.5H5.5c-3.1,0-5.5-2.5-5.5-5.5V5.7   c0-0.4,0-0.7,0.1-1V0h89.8v4.7C90,5,90,5.4,90,5.7z M19.3,7.9c0.7,0.6,1.8,0.5,2.5-0.2c0.6-0.7,0.5-1.8-0.2-2.5   c-0.7-0.6-1.8-0.5-2.5,0.2C18.4,6.1,18.5,7.2,19.3,7.9z M12.5,7.9c0.7,0.6,1.8,0.5,2.5-0.2c0.6-0.7,0.5-1.8-0.2-2.5   c-0.7-0.6-1.8-0.5-2.5,0.2C11.6,6.1,11.7,7.2,12.5,7.9z M6,7.9c0.7,0.6,1.8,0.5,2.5-0.2C9.1,6.9,9,5.8,8.2,5.2   C7.5,4.5,6.4,4.6,5.8,5.4C5.1,6.1,5.2,7.2,6,7.9z M86.9,12.9H3.1v46.5c0,1.3,1.1,2.4,2.4,2.4h78.9c1.3,0,2.4-1.1,2.4-2.4V12.9z"></path></g></svg>