<svg xmlns="http://www.w3.org/2000/svg" xmlns:xlink="http://www.w3.org/1999/xlink" version="1.1" x="0px" y="0px" viewBox="0 0 50 50" enable-background="new 0 0 50 50" xml:space="preserve"><g><path fill-rule="evenodd" clip-rule="evenodd" d="M5.118,20.294c0.619,0.054,1.077,0.599,1.022,1.217   c-0.054,0.618-0.599,1.076-1.217,1.022c-0.618-0.054-1.076-0.599-1.022-1.217C3.956,20.697,4.5,20.239,5.118,20.294 M21.988,35.016   c-3.788-0.725-6.037-1.665-9.243-3.614c-0.995,1.922-0.628,3.762,0.409,5.105c0.844,1.095,2.158,1.844,3.532,2   c1.685,0.194,3.448-0.447,4.589-2.322L21.988,35.016z M46.809,30.388c-2.669,1.886-5.719,3.213-8.868,4.062l1.92,2.575   c1.252,1.681,3.121,2.037,4.812,1.571c1.233-0.341,2.36-1.128,3.066-2.199c0.909-1.38,1.101-3.136-0.107-4.849L46.809,30.388z    M38.228,24.239c2.233-0.582,3.784-1.332,5.597-2.622c0.606-0.065,1.225-0.105,1.821-0.236c-1.331-3.715-4.474-6.513-7.974-8.172   l-2.907,5.033L38.228,24.239z M35.644,24.755l-3.037-5.261h-6.295l-2.573,4.456C27.504,25.004,31.776,25.309,35.644,24.755z    M26.314,16.988h6.291l2.72-4.712c-3.813-1.247-8.078-1.413-11.961-0.396L26.314,16.988z M24.153,18.243l-3.207-5.554   c-2.998,1.238-5.727,3.34-7.257,6.247c0.588,0.205,1.172,0.364,1.771,0.527c1.813,1.685,3.499,2.747,5.865,3.678L24.153,18.243z    M10.618,29.001c2.245,0.7,3.467,1.879,5.478,2.788c4.846,2.195,11.172,3.013,17.25,2.205c6.018-0.799,11.84-3.194,15.819-7.422   c0.846-0.894,1.139-2.003,0.458-3.099c-0.579-0.926-1.682-1.346-2.731-1.034c-0.935,0.278-1.602,0.378-2.572,0.482   c-2.123,1.51-4.287,2.341-6.833,2.878c-5.269,1.111-11.501,0.592-16.524-1.35c-2.369-0.916-4.319-2.041-6.179-3.771   c-2.13-0.58-4.288-1.499-6.201-2.6c-1.776-1.024-4.018-1.275-5.866-0.292c-3.191,1.696-3.593,6.37-1.09,8.831   c0.907,0.892,2.192,1.517,3.885,1.564C7.071,28.225,8.877,28.458,10.618,29.001z"></path></g></svg>