<svg xmlns="http://www.w3.org/2000/svg" xmlns:xlink="http://www.w3.org/1999/xlink" version="1.1" x="0px" y="0px" viewBox="0 0 308.3681 286.2758" enable-background="new 0 0 308.3681 286.2758" xml:space="preserve"><g><path d="M49.0985,240.5531c-3.1802,4.5146-2.0977,10.7529,2.4175,13.9336c1.7505,1.2324,3.7598,1.8252,5.7495,1.8252   c2.8083,0,5.5715-1.1873,7.5185-3.4114l-1.5354-32.4385L49.0985,240.5531z"></path><path d="M85.6295,206.0419c1.1077,1.7792,1.7458,3.8261,1.8452,5.9204l0.3918,8.2787l6.4278-9.1264   c2.2886-3.249,2.4355-7.5459,0.374-10.9443l-3.6141-5.9574c-3.6528,0.6483-7.5956,1.2223-11.7166,1.7256L85.6295,206.0419z"></path><path d="M54.3745,198.0721l10.6343,17.2501l2.5312,59.1587c0.2305,5.3726,4.6582,9.5732,9.9834,9.5728   c0.1445,0,0.29-0.0029,0.4355-0.0093c5.5176-0.2358,9.7988-4.9004,9.5635-10.418l-2.6426-61.7617   c-0.0732-1.707-0.582-3.3662-1.4785-4.8203l-6.6584-10.8007C69.549,197.0572,61.9051,197.6623,54.3745,198.0721z"></path><path d="M244.5652,94.9508c-7.1665,6.656-17.4316,8.4503-26.4019,4.7148l-36.1868,11.0263l-33.6865-12.8252   c0.0454-0.3975,0.0586-0.8037,0.0283-1.2173c-0.262-3.5801-3.3716-6.2764-6.9573-6.0078l-6.7705,0.4956   c-1.0083,0.0737-1.9854,0.3813-2.8538,0.8994l-36.3838,21.6895L81.3878,86.3349c-0.9249-1.8146-2.5856-3.0064-4.4329-3.4023   c-5.8796,7.702-16.1565,11.3378-25.9427,8.3216c-5.5694-1.7166-10.0537-5.3055-12.984-9.8612   c-0.765,0.0842-1.5049,0.171-2.1917,0.2623L13.1081,64.2134l1.4438-43.2876c0.1196-3.5874-2.6921-6.5933-6.28-6.7124   c-3.5896-0.1211-6.5938,2.6919-6.7131,6.2798L0.0036,67.1196c-0.0693,2.0957,0.8757,4.0962,2.5398,5.373l26.1921,20.0996   c3.0222,9.7163,7.2366,25.0898,6.5366,33.3276c-0.2429,2.8569-0.8315,5.2329-1.5747,7.3906l-0.2026,0.0459   c-15.0757,13.8574-19.103,52.1528-21.5835,61.4014c8.8677,1.9502,60.7002,1.3511,86.978-5.2544   c-4.4355-13.3247-24.1597-47.7349-27.1089-64.5869c-0.209-5.8374,1.7876-13.8481,4.042-20.877l11.103,21.7778   c0.8169,1.6025,2.261,2.7944,3.989,3.293c0.5913,0.1709,1.1975,0.2549,1.8015,0.2549c1.1609,0,2.3125-0.311,3.3286-0.917   l35.6878-21.2744c0.8884,1.2886,2.1606,2.332,3.7339,2.9312l43.3762,16.5142c0.9153,0.3486,1.8801,0.5234,2.8464,0.5234   c0.7849,0,1.5708-0.1157,2.3318-0.3472l33.9436-10.3428l10.3779,52.9551l-29.8037,16.6631   c-3.6741,2.0542-6.0361,5.8511-6.2554,10.0542l-2.9692,56.939c-0.3523,6.7563,4.8391,12.519,11.5955,12.8716   c0.2173,0.0112,0.4333,0.0171,0.6484,0.0171c6.4727-0.0005,11.8818-5.0737,12.2229-11.6123l2.6169-50.1851l27.8062-15.5464   l-12.1191,23.1387c-1.9155,3.6572-1.8599,8.0337,0.1479,11.6411l31.498,56.5923c2.2405,4.0254,6.4136,6.2949,10.7151,6.2949   c2.0156-0.0005,4.0598-0.4985,5.9463-1.5488c5.9116-3.29,8.0366-10.7495,4.7463-16.6611l-28.2808-50.8115l24.1736-46.1548   c0.4045-0.772,0.7148-1.5679,0.9421-2.3745c0.5859-1.375,0.7808-2.9336,0.4719-4.5107L269.7502,99.436l32.71-32.2329   c1.3962-1.376,2.2388-3.2168,2.3674-5.1729l3.5229-53.5049c0.2903-4.4087-3.0483-8.2178-7.457-8.5083   c-4.4072-0.2856-8.2178,3.0483-8.5083,7.4575l-3.323,50.4683l-33.7842,33.291c-0.2827,0.2788-0.5315,0.5776-0.7639,0.8853   l-8.8452,1.7335C245.3123,94.2272,244.9474,94.5957,244.5652,94.9508z"></path><path d="M76.5555,53.5914c1.1187,1.394,2.0719,2.9102,2.8521,4.512c5.8639,3.1426,12.1671,6.0574,18.118,4.7532   c16.1638-3.5422,14.4296-18.6739,12.0526-14.3616s-8.0365,8.039-23.3251-1.7974c-6.9634-4.4801-12.686-5.9252-17.4102-5.6274   l8.7452,11.8714L76.5555,53.5914z"></path><path d="M75.0035,54.5566c-1.9301,1.1437-9.2904,5.254-19.042,7.577c-8.0475,1.917-15.1717,2.0122-18.6811,1.9027   C35.1787,74.6629,41.376,85.388,51.9499,88.6994c11.3314,3.5488,23.3942-2.7604,26.9429-14.0918   C81.1393,67.4342,79.4314,59.9707,75.0035,54.5566z"></path><path d="M242.9999,93.2657c4.9633-4.6099,7.3567-10.9366,7.1561-17.2137l-0.6063,0.0571   c-0.3954,0.0373-9.8212,0.8814-20.9844-1.7778s-19.1953-7.662-19.5313-7.8736l-0.9962-0.6268   c-4.6191,8.2873-3.6415,18.9339,3.1639,26.261C219.6593,101.1977,233.8947,101.7225,242.9999,93.2657z"></path><path d="M210.2589,64.5106c0,0,7.9178,4.9818,18.8397,7.5835c10.9219,2.6017,20.2353,1.7247,20.2353,1.7247l-8.562-50.7285   L210.2589,64.5106z M223.3915,61.7141c-0.3091,1.298-1.612,2.0995-2.91,1.7903s-2.0995-1.6121-1.7903-2.91   c0.3092-1.298,1.6121-2.0995,2.91-1.7903C222.8991,59.1134,223.7007,60.4162,223.3915,61.7141z M230.6136,55.0403   c0.3092-1.298,1.6121-2.0995,2.91-1.7903c1.298,0.3091,2.0995,1.612,1.7903,2.91s-1.6121,2.0995-2.91,1.7903   C231.106,57.6412,230.3044,56.3383,230.6136,55.0403z M236.5659,65.0835c-0.3091,1.2979-1.612,2.0995-2.91,1.7903   s-2.0995-1.612-1.7903-2.91c0.3092-1.298,1.6121-2.0995,2.91-1.7903C236.0736,62.4827,236.8751,63.7856,236.5659,65.0835z    M234.5503,38.78c0.3092-1.298,1.6121-2.0995,2.91-1.7903c1.2979,0.3092,2.0995,1.6121,1.7903,2.91   c-0.3092,1.298-1.612,2.0995-2.91,1.7903S234.2411,40.0779,234.5503,38.78z M227.582,45.6228   c0.3092-1.298,1.612-2.0995,2.91-1.7903s2.0995,1.6121,1.7903,2.91c-0.3092,1.298-1.6121,2.0995-2.91,1.7903   C228.0744,48.2235,227.2728,46.9207,227.582,45.6228z"></path><path d="M55.4282,59.8965c10.9219-2.6017,18.8397-7.5835,18.8397-7.5835L43.7548,10.8927L35.193,61.6212   C35.193,61.6212,44.5064,62.4982,55.4282,59.8965z M52.6613,51.7662c0.3092,1.298-0.4924,2.6008-1.7903,2.91   c-1.2979,0.3092-2.6008-0.4924-2.91-1.7903c-0.3092-1.298,0.4924-2.6008,1.7903-2.91   C51.0492,49.6667,52.3521,50.4682,52.6613,51.7662z M65.8357,48.3969c0.3092,1.2979-0.4924,2.6008-1.7903,2.91   c-1.298,0.3092-2.6008-0.4924-2.91-1.7903c-0.3092-1.2979,0.4924-2.6008,1.7903-2.91   C64.2236,46.2973,65.5265,47.0989,65.8357,48.3969z M54.0349,31.6348c1.298-0.3092,2.6008,0.4924,2.91,1.7903   c0.3091,1.2979-0.4924,2.6008-1.7903,2.91s-2.6008-0.4924-2.91-1.7903C51.9354,33.2469,52.737,31.944,54.0349,31.6348z    M53.9133,42.8427c0.3091,1.298-0.4924,2.6008-1.7903,2.91c-1.298,0.3091-2.6008-0.4924-2.91-1.7903   c-0.3092-1.298,0.4923-2.6008,1.7903-2.91C52.3012,40.7432,53.6041,41.5447,53.9133,42.8427z M47.0666,24.792   c1.298-0.3092,2.6008,0.4924,2.91,1.7903c0.3092,1.2979-0.4924,2.6008-1.7903,2.91c-1.298,0.3092-2.6008-0.4924-2.91-1.7903   C44.967,26.4041,45.7686,25.1012,47.0666,24.792z"></path></g></svg>