<svg xmlns:dc="http://purl.org/dc/elements/1.1/" xmlns:cc="http://creativecommons.org/ns#" xmlns:rdf="http://www.w3.org/1999/02/22-rdf-syntax-ns#" xmlns:svg="http://www.w3.org/2000/svg" xmlns="http://www.w3.org/2000/svg" xmlns:sodipodi="http://sodipodi.sourceforge.net/DTD/sodipodi-0.dtd" xmlns:inkscape="http://www.inkscape.org/namespaces/inkscape" version="1.1" x="0px" y="0px" viewBox="0 0 100 100" xml:space="preserve"><path d="m 1.7857063,2.1835545 c -0.98749502,0 -1.78570530000001,0.79821 -1.78570530000001,1.785705 l 0,24.9998735 0,62.499687 c 0,0.987495 0.79821028000001,1.785705 1.78570530000001,1.785705 l 75.9552547,0 1.283476,3.480732 5.786105,-11.579183 12.140703,12.137215 c 0.348212,0.348213 0.805408,0.523156 1.262549,0.523156 0.45714,0 0.914336,-0.174946 1.262549,-0.523156 0.698207,-0.696425 0.698207,-1.826888 0,-2.525099 L 87.339127,82.630975 98.91831,76.841382 92.957822,74.644127 92.856678,28.969133 l 0,-24.9998735 c 0,-0.987495 -0.79821,-1.785705 -1.785705,-1.785705 l -89.2852667,0 z m 1.7857054,3.57141 85.7138553,0 0,21.4284635 -85.7138553,0 0,-21.4284635 z m 10.7142323,3.571411 c -3.939266,0 -7.1428217,3.2035555 -7.1428217,7.1428205 0,3.939266 3.2035557,7.142821 7.1428217,7.142821 3.939266,0 7.142821,-3.203555 7.142821,-7.142821 0,-3.939265 -3.203555,-7.1428205 -7.142821,-7.1428205 z m 16.071348,0 c -3.939266,0 -7.142822,3.2035555 -7.142822,7.1428205 0,3.939266 3.203556,7.142821 7.142822,7.142821 3.939265,0 7.142821,-3.203555 7.142821,-7.142821 0,-3.939265 -3.203556,-7.1428205 -7.142821,-7.1428205 z m 16.071347,0 c -3.939265,0 -7.142821,3.2035555 -7.142821,7.1428205 0,3.939266 3.203556,7.142821 7.142821,7.142821 3.939266,0 7.142822,-3.203555 7.142822,-7.142821 0,-3.939265 -3.203556,-7.1428205 -7.142822,-7.1428205 z M 14.285644,12.897786 c 1.969633,0 3.57141,1.601778 3.57141,3.57141 0,1.969633 -1.601777,3.571411 -3.57141,3.571411 -1.969633,0 -3.571411,-1.601778 -3.571411,-3.571411 0,-1.969632 1.601778,-3.57141 3.571411,-3.57141 z m 16.071348,0 c 1.969633,0 3.57141,1.601778 3.57141,3.57141 0,1.969633 -1.601777,3.571411 -3.57141,3.571411 -1.969633,0 -3.571411,-1.601778 -3.571411,-3.571411 0,-1.969632 1.601778,-3.57141 3.571411,-3.57141 z m 16.071347,0 c 1.969633,0 3.571411,1.601778 3.571411,3.57141 0,1.969633 -1.601778,3.571411 -3.571411,3.571411 -1.969633,0 -3.57141,-1.601778 -3.57141,-3.571411 0,-1.969632 1.601777,-3.57141 3.57141,-3.57141 z m -42.8569273,17.857053 85.7138553,0 0.09766,42.574424 -21.962085,-8.091478 9.005257,24.44533 -72.8546843,0 0,-58.928275 z m 69.8761833,40.509702 16.486385,6.075584 -6.940535,3.470266 -3.470266,6.940535 -6.075584,-16.486385 z"></path></svg>