<svg xmlns="http://www.w3.org/2000/svg" xmlns:xlink="http://www.w3.org/1999/xlink" version="1.1" x="0px" y="0px" viewBox="0 0 54 48" enable-background="new 0 0 54 48" xml:space="preserve"><g><path d="M9,40c2.21,0,4-1.79,4-4s-1.79-4-4-4s-4,1.79-4,4S6.79,40,9,40z M9,34c1.1,0,2,0.9,2,2s-0.9,2-2,2s-2-0.9-2-2S7.9,34,9,34z   "></path><path d="M48,40c0.55,0,1-0.45,1-1v-6c0-0.55-0.45-1-1-1s-1,0.45-1,1v6C47,39.55,47.45,40,48,40z"></path><path d="M44,40c0.55,0,1-0.45,1-1v-6c0-0.55-0.45-1-1-1s-1,0.45-1,1v6C43,39.55,43.45,40,44,40z"></path><path d="M40,40c0.55,0,1-0.45,1-1v-6c0-0.55-0.45-1-1-1s-1,0.45-1,1v6C39,39.55,39.45,40,40,40z"></path><path d="M36,40c0.55,0,1-0.45,1-1v-6c0-0.55-0.45-1-1-1s-1,0.45-1,1v6C35,39.55,35.45,40,36,40z"></path><path d="M32,40c0.55,0,1-0.45,1-1v-6c0-0.55-0.45-1-1-1s-1,0.45-1,1v6C31,39.55,31.45,40,32,40z"></path><path d="M28,40c0.55,0,1-0.45,1-1v-6c0-0.55-0.45-1-1-1s-1,0.45-1,1v6C27,39.55,27.45,40,28,40z"></path><path d="M9,26c2.21,0,4-1.79,4-4s-1.79-4-4-4s-4,1.79-4,4S6.79,26,9,26z M9,20c1.1,0,2,0.9,2,2s-0.9,2-2,2s-2-0.9-2-2S7.9,20,9,20z   "></path><path d="M48,26c0.55,0,1-0.45,1-1v-6c0-0.55-0.45-1-1-1s-1,0.45-1,1v6C47,25.55,47.45,26,48,26z"></path><path d="M44,26c0.55,0,1-0.45,1-1v-6c0-0.55-0.45-1-1-1s-1,0.45-1,1v6C43,25.55,43.45,26,44,26z"></path><path d="M40,26c0.55,0,1-0.45,1-1v-6c0-0.55-0.45-1-1-1s-1,0.45-1,1v6C39,25.55,39.45,26,40,26z"></path><path d="M36,26c0.55,0,1-0.45,1-1v-6c0-0.55-0.45-1-1-1s-1,0.45-1,1v6C35,25.55,35.45,26,36,26z"></path><path d="M32,26c0.55,0,1-0.45,1-1v-6c0-0.55-0.45-1-1-1s-1,0.45-1,1v6C31,25.55,31.45,26,32,26z"></path><path d="M28,26c0.55,0,1-0.45,1-1v-6c0-0.55-0.45-1-1-1s-1,0.45-1,1v6C27,25.55,27.45,26,28,26z"></path><path d="M0,0v14v2v12v2v14h3v4h8v-4h32v4h8v-4h3V30v-2V16v-2V0H0z M9,46H5v-2h4V46z M49,46h-4v-2h4V46z M52,42h-1h-8H11H3H2V30h50   V42z M52,28H2V16h50V28z M2,14V2h50v12H2z"></path><path d="M9,4C6.79,4,5,5.79,5,8s1.79,4,4,4s4-1.79,4-4S11.21,4,9,4z M9,10c-1.1,0-2-0.9-2-2s0.9-2,2-2s2,0.9,2,2S10.1,10,9,10z"></path><path d="M48,4c-0.55,0-1,0.45-1,1v6c0,0.55,0.45,1,1,1s1-0.45,1-1V5C49,4.45,48.55,4,48,4z"></path><path d="M44,4c-0.55,0-1,0.45-1,1v6c0,0.55,0.45,1,1,1s1-0.45,1-1V5C45,4.45,44.55,4,44,4z"></path><path d="M40,4c-0.55,0-1,0.45-1,1v6c0,0.55,0.45,1,1,1s1-0.45,1-1V5C41,4.45,40.55,4,40,4z"></path><path d="M36,4c-0.55,0-1,0.45-1,1v6c0,0.55,0.45,1,1,1s1-0.45,1-1V5C37,4.45,36.55,4,36,4z"></path><path d="M32,4c-0.55,0-1,0.45-1,1v6c0,0.55,0.45,1,1,1s1-0.45,1-1V5C33,4.45,32.55,4,32,4z"></path><path d="M28,4c-0.55,0-1,0.45-1,1v6c0,0.55,0.45,1,1,1s1-0.45,1-1V5C29,4.45,28.55,4,28,4z"></path></g></svg>