<svg xmlns="http://www.w3.org/2000/svg" xmlns:xlink="http://www.w3.org/1999/xlink" version="1.1" x="0px" y="0px" viewBox="0 0 98 98" style="enable-background:new 0 0 98 98;" xml:space="preserve"><path d="M38.52,13.682c0,0.676-0.548,1.224-1.224,1.224h-0.103c-0.676,0-1.224-0.548-1.224-1.224s0.548-1.224,1.224-1.224h0.103  C37.972,12.458,38.52,13.006,38.52,13.682z M21.675,31.995c-0.49-0.466-1.265-0.446-1.73,0.045c-0.466,0.49-0.446,1.264,0.045,1.73  l2.478,2.354c0.228,0.216,0.53,0.336,0.843,0.336c0.015,0,0.03,0,0.045-0.001c0.329-0.012,0.64-0.157,0.861-0.401l4.831-5.327  c0.454-0.501,0.416-1.275-0.084-1.729c-0.5-0.454-1.275-0.416-1.729,0.084l-3.99,4.399L21.675,31.995z M32.86,31.505h20.989  c0.676,0,1.224-0.548,1.224-1.224s-0.548-1.224-1.224-1.224H32.86c-0.676,0-1.224,0.548-1.224,1.224S32.184,31.505,32.86,31.505z   M32.86,36.088h17.348c0.676,0,1.224-0.548,1.224-1.224c0-0.676-0.548-1.224-1.224-1.224H32.86c-0.676,0-1.224,0.548-1.224,1.224  C31.636,35.541,32.184,36.088,32.86,36.088z M27.235,45.068l-3.99,4.399l-1.57-1.491c-0.49-0.466-1.265-0.446-1.73,0.045  c-0.466,0.49-0.446,1.264,0.045,1.73l2.478,2.354c0.228,0.216,0.53,0.336,0.843,0.336c0.015,0,0.03,0,0.045-0.001  c0.329-0.012,0.64-0.157,0.861-0.401l4.831-5.327c0.454-0.501,0.416-1.275-0.084-1.729C28.463,44.53,27.689,44.568,27.235,45.068z   M32.86,47.486h20.989c0.676,0,1.224-0.548,1.224-1.224c0-0.676-0.548-1.224-1.224-1.224H32.86c-0.676,0-1.224,0.548-1.224,1.224  C31.636,46.938,32.184,47.486,32.86,47.486z M32.86,52.069h17.348c0.676,0,1.224-0.548,1.224-1.224c0-0.676-0.548-1.224-1.224-1.224  H32.86c-0.676,0-1.224,0.548-1.224,1.224C31.636,51.521,32.184,52.069,32.86,52.069z M27.235,61.049l-3.99,4.399l-1.57-1.491  c-0.49-0.466-1.265-0.446-1.73,0.044c-0.466,0.49-0.446,1.264,0.045,1.73l2.478,2.354c0.228,0.216,0.53,0.336,0.843,0.336  c0.015,0,0.03,0,0.045-0.001c0.329-0.012,0.64-0.157,0.861-0.401l4.831-5.327c0.454-0.501,0.416-1.275-0.084-1.729  C28.463,60.51,27.689,60.548,27.235,61.049z M32.86,63.466h15.495c0.676,0,1.224-0.548,1.224-1.224c0-0.676-0.548-1.224-1.224-1.224  H32.86c-0.676,0-1.224,0.548-1.224,1.224C31.636,62.918,32.184,63.466,32.86,63.466z M32.86,68.05h13.768  c0.676,0,1.224-0.548,1.224-1.224s-0.548-1.224-1.224-1.224H32.86c-0.676,0-1.224,0.548-1.224,1.224S32.184,68.05,32.86,68.05z   M67.092,71.505c-6.342,0-11.501-5.159-11.501-11.501s5.159-11.501,11.501-11.501c6.342,0,11.501,5.159,11.501,11.501  S73.433,71.505,67.092,71.505z M67.092,69.058c4.992,0,9.054-4.061,9.054-9.054s-4.061-9.054-9.054-9.054  c-4.992,0-9.054,4.061-9.054,9.054S62.099,69.058,67.092,69.058z M87.511,83.045c-0.342,0.4-0.903,0.535-1.391,0.337l-7.119-2.902  l-0.792,7.646c-0.054,0.524-0.438,0.954-0.952,1.068c-0.088,0.02-0.177,0.029-0.265,0.029c-0.423,0-0.825-0.22-1.049-0.594  L68.93,76.938c-0.558,0.273-1.164,0.461-1.839,0.461c-0.645,0-1.226-0.175-1.764-0.428L58.24,88.787  c-0.224,0.374-0.626,0.594-1.049,0.594c-0.088,0-0.177-0.009-0.266-0.029c-0.514-0.114-0.898-0.545-0.952-1.069l-0.792-7.646  l-7.119,2.902c-0.296,0.121-0.613,0.105-0.898-0.005H17.641c-4.106,0-7.447-3.341-7.447-7.447V22.551  c0-4.106,3.341-7.447,7.447-7.447h7.514v-1.422c0-0.676,0.548-1.224,1.224-1.224h4.944c0.834-2.249,3.202-3.84,5.922-3.84  c2.72,0,5.087,1.591,5.922,3.84h4.944c0.676,0,1.224,0.548,1.224,1.224v1.422h7.515c4.107,0,7.447,3.341,7.447,7.447v21.08  c0.808-0.543,1.715-1.023,2.795-1.023c1.396,0,2.504,0.799,3.482,1.505c0.544,0.393,1.058,0.764,1.507,0.913  c0.461,0.153,1.102,0.156,1.782,0.158c1.149,0.004,2.451,0.009,3.505,0.781c1.054,0.773,1.446,2.009,1.793,3.1  c0.202,0.638,0.393,1.24,0.669,1.617c0.274,0.374,0.787,0.738,1.33,1.123c0.947,0.673,2.02,1.435,2.442,2.7  c0.418,1.254,0.026,2.526-0.32,3.648c-0.209,0.677-0.406,1.318-0.406,1.85c0,0.532,0.197,1.172,0.406,1.85  c0.346,1.122,0.738,2.394,0.32,3.648c-0.421,1.265-1.494,2.027-2.442,2.7c-0.403,0.286-0.788,0.561-1.073,0.836l7.546,12.582  C87.902,82.071,87.854,82.645,87.511,83.045z M49.334,17.551v1.64h7.515c1.852,0,3.359,1.507,3.359,3.359v22.634  c0.037,0,0.076-0.001,0.113-0.001c0.565-0.002,1.098-0.01,1.528-0.099V22.551c0-2.757-2.243-5-5-5H49.334z M27.603,21.749h19.284  v-6.844h-4.664c-0.608,0-1.124-0.447-1.211-1.049c-0.23-1.591-1.849-2.791-3.767-2.791c-1.918,0-3.537,1.2-3.767,2.791  c-0.087,0.602-0.603,1.049-1.211,1.049h-4.664V21.749z M26.379,24.196c-0.676,0-1.224-0.548-1.224-1.224v-1.334h-7.514  c-0.503,0-0.912,0.409-0.912,0.912v53.536c0,0.503,0.409,0.912,0.912,0.912h31.776l4.738-7.899  c-0.289-0.296-0.697-0.591-1.131-0.899c-0.947-0.672-2.02-1.434-2.442-2.7c-0.417-1.254-0.026-2.526,0.32-3.648  c0.209-0.677,0.406-1.318,0.406-1.85c0-0.532-0.197-1.173-0.406-1.85c-0.345-1.122-0.737-2.394-0.32-3.648  c0.421-1.266,1.495-2.028,2.442-2.7c0.543-0.386,1.056-0.749,1.33-1.123c0.276-0.377,0.467-0.979,0.669-1.617  c0.346-1.091,0.738-2.327,1.793-3.1c0.298-0.218,0.616-0.37,0.944-0.483V22.551c0-0.503-0.409-0.912-0.912-0.912h-7.515v1.334  c0,0.676-0.548,1.224-1.224,1.224H26.379z M17.641,81.087h29.324l0.984-1.641H17.641c-1.853,0-3.359-1.507-3.359-3.359V22.551  c0-1.853,1.507-3.359,3.359-3.359h7.514v-1.64h-7.514c-2.757,0-5,2.243-5,5v53.536C12.642,78.844,14.884,81.087,17.641,81.087z   M63.267,75.649c-0.009-0.006-0.017-0.013-0.026-0.019c-0.03-0.021-0.059-0.04-0.088-0.061c-0.09-0.063-0.18-0.123-0.267-0.18  c-0.04-0.026-0.079-0.05-0.118-0.074c-0.08-0.05-0.159-0.095-0.237-0.138c-0.036-0.02-0.073-0.041-0.108-0.058  c-0.109-0.055-0.216-0.104-0.319-0.138c-0.461-0.153-1.103-0.156-1.782-0.158c-1.149-0.004-2.451-0.009-3.504-0.781  c-0.17-0.125-0.318-0.265-0.457-0.412c-0.037-0.039-0.072-0.079-0.107-0.119c-0.111-0.129-0.214-0.263-0.307-0.403  c-0.016-0.025-0.035-0.047-0.05-0.072c-0.105-0.165-0.197-0.337-0.282-0.512c-0.022-0.045-0.041-0.089-0.062-0.134  c-0.066-0.144-0.127-0.29-0.183-0.437c-0.009-0.023-0.02-0.046-0.029-0.07l-4.801,8.005l5.23-2.132  c0.148-0.061,0.305-0.091,0.462-0.091c0.219,0,0.437,0.059,0.629,0.174c0.33,0.198,0.548,0.54,0.588,0.923l0.582,5.618  L63.267,75.649z M67.092,74.952c0.489,0,1.041-0.332,1.627-0.741c0.135-0.094,0.27-0.191,0.404-0.287  c0.006-0.005,0.013-0.009,0.019-0.014c0.669-0.483,1.362-0.983,2.166-1.25c0.834-0.278,1.704-0.281,2.547-0.284  c0.203-0.001,0.409-0.001,0.608-0.007c0.599-0.016,1.15-0.074,1.458-0.301c0.41-0.301,0.663-1.097,0.907-1.867  c0.011-0.033,0.022-0.067,0.033-0.1c0.043-0.135,0.087-0.271,0.132-0.407c0.022-0.067,0.046-0.133,0.07-0.199  c0.041-0.119,0.085-0.236,0.131-0.354c0.028-0.071,0.056-0.142,0.086-0.213c0.053-0.126,0.112-0.249,0.174-0.372  c0.026-0.052,0.049-0.105,0.077-0.156c0.004-0.008,0.008-0.017,0.012-0.025c0.006-0.011,0.016-0.019,0.022-0.03  c0.089-0.16,0.182-0.317,0.292-0.467c0.508-0.693,1.209-1.191,1.887-1.672c0.673-0.477,1.368-0.971,1.536-1.477  c0.17-0.51-0.076-1.309-0.337-2.154c-0.253-0.821-0.514-1.67-0.514-2.571c0-0.901,0.262-1.75,0.514-2.571  c0.26-0.846,0.507-1.644,0.337-2.154c-0.169-0.507-0.864-1.001-1.537-1.478c-0.677-0.481-1.378-0.979-1.887-1.672  c-0.514-0.701-0.776-1.526-1.029-2.324c-0.244-0.77-0.497-1.566-0.907-1.867c-0.411-0.302-1.253-0.305-2.067-0.307  c-0.842-0.003-1.713-0.006-2.546-0.284c-0.804-0.268-1.497-0.768-2.166-1.251c-0.743-0.536-1.444-1.042-2.05-1.042  s-1.307,0.506-2.049,1.042c-0.67,0.483-1.362,0.983-2.166,1.251c-0.833,0.277-1.704,0.28-2.546,0.284  c-0.814,0.003-1.655,0.006-2.067,0.308c-0.41,0.301-0.663,1.097-0.907,1.867c-0.253,0.798-0.514,1.622-1.029,2.324  c-0.508,0.693-1.209,1.191-1.887,1.672c-0.673,0.477-1.368,0.971-1.536,1.478c-0.17,0.51,0.076,1.309,0.337,2.154  c0.253,0.821,0.514,1.67,0.514,2.571c0,0.901-0.261,1.75-0.514,2.571c-0.26,0.846-0.507,1.645-0.337,2.154  c0.168,0.506,0.864,1,1.536,1.477c0.678,0.481,1.379,0.979,1.887,1.672c0.138,0.189,0.256,0.388,0.363,0.592  c0.003,0.005,0.007,0.009,0.01,0.014c0.082,0.158,0.154,0.32,0.222,0.483c0.021,0.05,0.04,0.101,0.06,0.152  c0.054,0.138,0.105,0.275,0.153,0.414c0.018,0.051,0.035,0.101,0.052,0.152c0.058,0.173,0.114,0.346,0.168,0.517  c0.153,0.481,0.309,0.973,0.504,1.347c0.117,0.225,0.249,0.407,0.403,0.52c0.411,0.302,1.253,0.305,2.066,0.307  c0.842,0.003,1.713,0.006,2.547,0.284c0.201,0.067,0.395,0.149,0.584,0.241c0.016,0.008,0.03,0.017,0.045,0.025  c0.172,0.086,0.341,0.179,0.504,0.279c0.358,0.219,0.699,0.465,1.034,0.707c0.181,0.13,0.362,0.261,0.545,0.387  c0.001,0,0.001,0.001,0.002,0.002C66.13,74.668,66.638,74.952,67.092,74.952z M83.645,79.73l-4.765-7.945  c-0.003,0.008-0.007,0.016-0.01,0.025c-0.063,0.173-0.134,0.345-0.209,0.516c-0.022,0.049-0.044,0.098-0.067,0.147  c-0.087,0.183-0.179,0.365-0.287,0.538c-0.003,0.004-0.006,0.008-0.008,0.012c-0.104,0.167-0.225,0.324-0.355,0.475  c-0.034,0.039-0.069,0.078-0.104,0.116c-0.142,0.153-0.295,0.299-0.472,0.429c-0.658,0.483-1.414,0.665-2.169,0.736  c-0.453,0.042-0.905,0.044-1.336,0.045c-0.679,0.002-1.321,0.005-1.782,0.158c-0.102,0.034-0.209,0.082-0.317,0.137  c-0.031,0.016-0.063,0.033-0.095,0.051c-0.083,0.045-0.167,0.094-0.253,0.147c-0.031,0.019-0.062,0.038-0.094,0.058  c-0.111,0.072-0.224,0.147-0.339,0.228l5.171,8.621l0.582-5.618c0.04-0.383,0.257-0.725,0.588-0.923  c0.33-0.198,0.735-0.229,1.091-0.084L83.645,79.73z M71.167,56.726c-0.501-0.454-1.275-0.415-1.729,0.084l-3.46,3.815l-1.298-1.233  c-0.49-0.466-1.265-0.445-1.73,0.045c-0.466,0.49-0.446,1.264,0.045,1.73l2.206,2.095c0.228,0.216,0.53,0.336,0.843,0.336  c0.015,0,0.03,0,0.045-0.001c0.329-0.012,0.64-0.157,0.861-0.401l4.301-4.742C71.706,57.954,71.668,57.18,71.167,56.726z"></path></svg>