<svg xmlns="http://www.w3.org/2000/svg" data-name="Layer 3" viewBox="0 0 100 100" x="0px" y="0px"><title>Icon_Templete_kibeom_181105</title><path d="M66.48823,38.97613a7.01891,7.01891,0,0,0-7.01172,7.01074V77.70269a1,1,0,0,0,2,0V45.98687a5.01172,5.01172,0,0,1,10.02344,0V48.524a1,1,0,0,0,2,0V45.98687A7.01891,7.01891,0,0,0,66.48823,38.97613Z"></path><circle cx="48.29921" cy="29.81091" r="9.21765"></circle><path d="M34.0854,38.15142A15.91455,15.91455,0,0,0,18.17085,54.066v23.637H50V54.066A15.9146,15.9146,0,0,0,34.0854,38.15142Z"></path></svg>