<svg xmlns:dc="http://purl.org/dc/elements/1.1/" xmlns:cc="http://creativecommons.org/ns#" xmlns:rdf="http://www.w3.org/1999/02/22-rdf-syntax-ns#" xmlns:svg="http://www.w3.org/2000/svg" xmlns="http://www.w3.org/2000/svg" xmlns:sodipodi="http://sodipodi.sourceforge.net/DTD/sodipodi-0.dtd" xmlns:inkscape="http://www.inkscape.org/namespaces/inkscape" version="1.1" x="0px" y="0px" viewBox="0 0 100 100"><g transform="translate(0,-952.36218)"><path style="text-indent:0;text-transform:none;direction:ltr;block-progression:tb;baseline-shift:baseline;color:#000000;enable-background:accumulate;" d="m 87.559324,1002.0966 c -1.0333,0.013 -2.135,0.26 -3.2188,0.7812 l -18.7187,9 c -0.8908,-2.0493 -3.03,-3.475 -5.4375,-3.4062 l -10.75,0.3437 c -2.6443,0 -4.6402,-0.65 -7.1562,-1.375 -2.522,-0.7267 -5.5373,-1.5 -9.6876,-1.5 -3.4139,0 -8.0011,1.013 -11.75,2.2813 l 0,-2.3438 c 0,-0.2617 -0.056,-0.5082 -0.1562,-0.75 -0.1002,-0.2418 -0.2524,-0.4711 -0.4375,-0.6562 -0.185,-0.1851 -0.3832,-0.3373 -0.625,-0.4375 -0.2418,-0.1002 -0.5195,-0.1562 -0.7813,-0.1563 l -10.8436997,0 c -0.2618,0 -0.5081,0.056 -0.75,0.1563 -0.2418,0.1001 -0.4712,0.2524 -0.6563,0.4375 -0.1851,0.1851 -0.3372,0.4144 -0.4374,0.6562 -0.1002,0.2419 -0.1563,0.4882 -0.1563,0.75 l 0,8.1875 0,21.5625 c 0,0.2618 0.056,0.5395 0.1563,0.7813 0.1002,0.2418 0.2523,0.4399 0.4374,0.625 0.1851,0.1851 0.4145,0.3373 0.6563,0.4375 0.2419,0.1002 0.4882,0.1562 0.75,0.1562 l 10.8436997,0 c 0.2618,-10e-5 0.5395,-0.056 0.7813,-0.1562 0.2418,-0.1002 0.44,-0.2524 0.625,-0.4375 0.1851,-0.1851 0.3373,-0.3832 0.4375,-0.625 0.1002,-0.2418 0.1562,-0.5195 0.1562,-0.7813 l 0,-2.5312 c 13.1592,-2.3298 20.9907,1.6347 32.8438,1.625 2.4552,-5e-4 5.0314,-1.2059 8.25,-2.875 3.2193,-1.6695 6.9009,-3.9077 10.625,-6.3125 7.448,-4.8096 15.0921,-10.2841 19.0625,-12.9688 1.362,-0.923 2.1763,-2.3761 2.3437,-3.8125 0.1675,-1.4363 -0.2323,-2.8357 -1.0312,-4 -1.0984,-1.6009 -3.1016,-2.6847 -5.375,-2.6562 z m -77.5624997,5.7812 1.8436997,0 0,25.75 -1.8436997,0 0,-19.5625 0,-6.1875 z" fill="#000000" fill-opacity="1" fill-rule="evenodd" stroke="none" marker="none" visibility="visible" display="inline" overflow="visible"></path><path style="text-indent:0;text-transform:none;direction:ltr;block-progression:tb;baseline-shift:baseline;color:#000000;enable-background:accumulate;" d="m 48.403124,967.09657 c -0.2619,0 -0.5081,0.0561 -0.75,0.15625 -0.2419,0.10017 -0.4712,0.25241 -0.6563,0.4375 -0.1851,0.18508 -0.3373,0.41441 -0.4375,0.65625 -0.1002,0.24183 -0.1562,0.48822 -0.1562,0.75 l 0,4 c -0.012,0.005 -0.019,0.0262 -0.031,0.0312 l -2.8437,-2.84375 c -0.1852,-0.18507 -0.3832,-0.33734 -0.625,-0.4375 -0.2419,-0.10016 -0.5196,-0.15625 -0.7813,-0.15625 -0.2618,0 -0.5082,0.0561 -0.75,0.15625 -0.2419,0.10016 -0.4712,0.25243 -0.6563,0.4375 l -4.7187,4.71875 c -0.1851,0.18511 -0.3374,0.38316 -0.4375,0.625 -0.1002,0.24185 -0.1562,0.51949 -0.1562,0.78125 0,0.26177 0.056,0.50816 0.1562,0.75 0.1001,0.24184 0.2524,0.47114 0.4375,0.65625 l 2.8437,2.84375 c -0.01,0.0166 -0.024,0.0459 -0.031,0.0625 l -4,0 c -0.2618,0 -0.5393,0.0248 -0.7812,0.125 -0.2419,0.10017 -0.4399,0.25242 -0.625,0.4375 -0.1851,0.18509 -0.3374,0.41442 -0.4376,0.65625 -0.1002,0.24184 -0.1562,0.51948 -0.1562,0.78125 l 0,6.625 c 0,0.26177 0.056,0.53941 0.1562,0.78125 0.1002,0.24183 0.2525,0.47116 0.4376,0.65625 0.1851,0.18509 0.3831,0.33734 0.625,0.4375 0.2418,0.10017 0.5194,0.125 0.7812,0.125 l 4,0 c 0.01,0.0166 0.024,0.0459 0.031,0.0625 l -2.8437,2.84375 c -0.1852,0.18524 -0.3373,0.41422 -0.4375,0.65625 -0.1001,0.24204 -0.1563,0.48806 -0.1562,0.75 0,0.26195 0.056,0.53932 0.1562,0.78125 0.1004,0.24193 0.2521,0.43995 0.4375,0.625 l 4.7187,4.71873 c 0.1852,0.1848 0.4145,0.3376 0.6563,0.4375 0.2417,0.1 0.4884,0.1252 0.75,0.125 0.2616,-10e-5 0.5397,-0.025 0.7813,-0.125 0.2417,-0.1001 0.4399,-0.2525 0.625,-0.4375 l 2.8437,-2.84373 c 0.013,0.006 0.018,-0.006 0.031,0 l 0,4.03123 c 0,0.2618 0.056,0.5082 0.1562,0.75 0.1002,0.2419 0.2524,0.4712 0.4375,0.6563 0.1851,0.1851 0.4145,0.3373 0.6563,0.4375 0.2418,0.1001 0.4881,0.1562 0.75,0.1562 l 6.6562,0 c 0.2617,0 0.5394,-0.056 0.7812,-0.1562 0.2419,-0.1002 0.4712,-0.2524 0.6563,-0.4375 0.1851,-0.1851 0.3373,-0.4145 0.4375,-0.6563 0.1002,-0.2418 0.125,-0.4882 0.125,-0.75 l 0,-4.03123 c 0.016,-0.007 0.047,0.007 0.062,0 l 2.8437,2.84373 c 0.1852,0.1851 0.4144,0.3374 0.6563,0.4375 0.2418,0.1002 0.4882,0.125 0.75,0.125 0.2617,0 0.5394,-0.025 0.7813,-0.125 0.2418,-0.1001 0.4399,-0.2524 0.625,-0.4375 l 4.7187,-4.71873 c 0.1851,-0.18511 0.3374,-0.38316 0.4375,-0.625 0.1002,-0.24184 0.125,-0.51948 0.125,-0.78125 0,-0.26176 -0.025,-0.50815 -0.125,-0.75 -0.1001,-0.24184 -0.2524,-0.47114 -0.4375,-0.65625 l -2.8432,-2.8437 c 0.01,-0.0166 0.024,-0.0459 0.031,-0.0625 l 4,0 c 0.2617,0 0.5082,-0.0248 0.75,-0.125 0.2418,-0.10019 0.4712,-0.25241 0.6562,-0.4375 0.1852,-0.18508 0.3373,-0.41443 0.4376,-0.65625 0.1001,-0.24182 0.1562,-0.5195 0.1562,-0.78125 l 0,-6.625 c 0,-0.26174 -0.056,-0.53943 -0.1562,-0.78125 -0.1003,-0.24181 -0.2524,-0.47117 -0.4376,-0.65625 -0.185,-0.18508 -0.4144,-0.33731 -0.6562,-0.4375 -0.2418,-0.10018 -0.4883,-0.12496 -0.75,-0.125 l -4,0 c -0.01,-0.0166 -0.024,-0.0459 -0.031,-0.0625 l 2.8437,-2.84375 c 0.185,-0.18501 0.3373,-0.41456 0.4375,-0.65625 0.1001,-0.24169 0.1249,-0.48839 0.125,-0.75 0,-0.26162 -0.025,-0.50823 -0.125,-0.75 -0.1,-0.24177 -0.2527,-0.47108 -0.4375,-0.65625 l -4.7187,-4.71875 c -0.1852,-0.18539 -0.383,-0.33709 -0.625,-0.4375 -0.2419,-0.1004 -0.5193,-0.15613 -0.7813,-0.15625 -0.2619,-1e-4 -0.508,0.0561 -0.75,0.15625 -0.2421,0.1002 -0.471,0.25227 -0.6563,0.4375 l -2.8437,2.84375 c -0.015,-0.006 -0.048,-0.0251 -0.062,-0.0312 l 0,-4 c 0,-0.26175 -0.025,-0.50819 -0.125,-0.75 -0.1002,-0.24182 -0.2524,-0.47116 -0.4375,-0.65625 -0.1851,-0.18508 -0.4144,-0.33732 -0.6563,-0.4375 -0.2418,-0.10019 -0.5195,-0.15621 -0.7812,-0.15625 l -6.6562,0 z m 3.3437,9.5 c 5.1904,0 9.4375,4.25765 9.4375,9.4375 0,5.18722 -4.2471,9.4375 -9.4375,9.4375 -5.1832,0 -9.4375,-4.24704 -9.4375,-9.4375 0,-5.1831 4.2543,-9.4375 9.4375,-9.4375 z" fill="#000000" fill-opacity="1" fill-rule="evenodd" stroke="none" marker="none" visibility="visible" display="inline" overflow="visible"></path></g></svg>