<svg xmlns="http://www.w3.org/2000/svg" xmlns:xlink="http://www.w3.org/1999/xlink" version="1.1" x="0px" y="0px" viewBox="0 0 32 32" enable-background="new 0 0 32 32" xml:space="preserve"><g><path d="M10,23h20v-6H10V23z M26,19.5c0-0.2763672,0.2236328-0.5,0.5-0.5s0.5,0.2236328,0.5,0.5v1   c0,0.2763672-0.2236328,0.5-0.5,0.5S26,20.7763672,26,20.5V19.5z M24,19.5c0-0.2763672,0.2236328-0.5,0.5-0.5   s0.5,0.2236328,0.5,0.5v1c0,0.2763672-0.2236328,0.5-0.5,0.5S24,20.7763672,24,20.5V19.5z M22,19.5   c0-0.2763672,0.2236328-0.5,0.5-0.5s0.5,0.2236328,0.5,0.5v1c0,0.2763672-0.2236328,0.5-0.5,0.5S22,20.7763672,22,20.5V19.5z    M20,19.5c0-0.2763672,0.2236328-0.5,0.5-0.5s0.5,0.2236328,0.5,0.5v1c0,0.2763672-0.2236328,0.5-0.5,0.5S20,20.7763672,20,20.5   V19.5z"></path><path d="M10,27c0,1.6542969,1.3457031,3,3,3h14c1.6542969,0,3-1.3457031,3-3v-3H10V27z M26,26.5c0-0.2763672,0.2236328-0.5,0.5-0.5   s0.5,0.2236328,0.5,0.5v1c0,0.2763672-0.2236328,0.5-0.5,0.5S26,27.7763672,26,27.5V26.5z M24,26.5   c0-0.2763672,0.2236328-0.5,0.5-0.5s0.5,0.2236328,0.5,0.5v1c0,0.2763672-0.2236328,0.5-0.5,0.5S24,27.7763672,24,27.5V26.5z    M22,26.5c0-0.2763672,0.2236328-0.5,0.5-0.5s0.5,0.2236328,0.5,0.5v1c0,0.2763672-0.2236328,0.5-0.5,0.5S22,27.7763672,22,27.5   V26.5z M20,26.5c0-0.2763672,0.2236328-0.5,0.5-0.5s0.5,0.2236328,0.5,0.5v1c0,0.2763672-0.2236328,0.5-0.5,0.5   S20,27.7763672,20,27.5V26.5z"></path><circle cx="7" cy="5" r="3"></circle><path d="M13,12v4h17v-6H12.5761719C12.84552,10.6135864,13,11.288208,13,12z M26,12.5c0-0.2763672,0.2236328-0.5,0.5-0.5   s0.5,0.2236328,0.5,0.5v1c0,0.2763672-0.2236328,0.5-0.5,0.5S26,13.7763672,26,13.5V12.5z M24,12.5   c0-0.2763672,0.2236328-0.5,0.5-0.5s0.5,0.2236328,0.5,0.5v1c0,0.2763672-0.2236328,0.5-0.5,0.5S24,13.7763672,24,13.5V12.5z    M22,12.5c0-0.2763672,0.2236328-0.5,0.5-0.5s0.5,0.2236328,0.5,0.5v1c0,0.2763672-0.2236328,0.5-0.5,0.5S22,13.7763672,22,13.5   V12.5z M20,12.5c0-0.2763672,0.2236328-0.5,0.5-0.5s0.5,0.2236328,0.5,0.5v1c0,0.2763672-0.2236328,0.5-0.5,0.5   S20,13.7763672,20,13.5V12.5z"></path><path d="M27,3H13c-0.8513794,0-1.6167603,0.3601685-2.163269,0.9316406C10.932373,4.2739258,11,4.6275635,11,5   c0,0.9429932-0.3416748,1.7992554-0.8895874,2.4838257C10.8505249,7.8313599,11.4857178,8.3543701,11.9744263,9H30V6   C30,4.3457031,28.6542969,3,27,3z M21,6.5C21,6.7763672,20.7763672,7,20.5,7S20,6.7763672,20,6.5v-1   C20,5.2236328,20.2236328,5,20.5,5S21,5.2236328,21,5.5V6.5z M23,6.5C23,6.7763672,22.7763672,7,22.5,7S22,6.7763672,22,6.5v-1   C22,5.2236328,22.2236328,5,22.5,5S23,5.2236328,23,5.5V6.5z M25,6.5C25,6.7763672,24.7763672,7,24.5,7S24,6.7763672,24,6.5v-1   C24,5.2236328,24.2236328,5,24.5,5S25,5.2236328,25,5.5V6.5z M27,6.5C27,6.7763672,26.7763672,7,26.5,7S26,6.7763672,26,6.5v-1   C26,5.2236328,26.2236328,5,26.5,5S27,5.2236328,27,5.5V6.5z"></path><path d="M12,12c0-2.2091675-1.7908325-4-4-4H7H6c-2.2091675,0-4,1.7908325-4,4v3h10V12z M9.9003906,9.7998047l-3,4   c-0.0869141,0.1162109-0.2207031,0.1884766-0.3652344,0.1987305C6.5234375,13.9995117,6.5117188,14,6.5,14   c-0.1318359,0-0.2597656-0.0522461-0.3535156-0.1464844l-2-2c-0.1953125-0.1953125-0.1953125-0.5117188,0-0.7070313   s0.5117188-0.1953125,0.7070313,0l1.5927734,1.5922852l2.6533203-3.5385742   c0.1669922-0.2216797,0.4804688-0.2641602,0.7001953-0.1000977C10.0205078,9.265625,10.0654297,9.5791016,9.9003906,9.7998047z"></path></g></svg>